<svg width="22" height="83" viewBox="0 0 22 83" fill="none" xmlns="http://www.w3.org/2000/svg">
<path d="M21.944 1.89599L17.24 51.912H5.624V0.263998L21.944 1.89599ZM10.52 61.416C12.12 61.416 13.528 61.736 14.744 62.376C16.024 63.016 17.08 63.848 17.912 64.872C18.808 65.832 19.48 66.92 19.928 68.136C20.376 69.288 20.6 70.408 20.6 71.496C20.6 72.904 20.312 74.248 19.736 75.528C19.224 76.808 18.488 77.928 17.528 78.888C16.632 79.848 15.544 80.616 14.264 81.192C13.048 81.768 11.768 82.056 10.424 82.056C8.696 82.056 7.192 81.768 5.912 81.192C4.632 80.68 3.576 79.976 2.744 79.08C1.912 78.12 1.272 77.064 0.824 75.912C0.44 74.76 0.248 73.576 0.248 72.36C0.248 71.08 0.472 69.8 0.92 68.52C1.368 67.176 2.008 65.992 2.84 64.968C3.736 63.88 4.824 63.016 6.104 62.376C7.384 61.736 8.856 61.416 10.52 61.416Z" fill="#FF0000"/>
</svg>
