<svg width="371" height="268" viewBox="0 0 371 268" fill="none" xmlns="http://www.w3.org/2000/svg">
<path d="M331 3H40C19.5655 3 3 19.5655 3 40V228C3 248.435 19.5655 265 40 265H331C351.435 265 368 248.435 368 228V40C368 19.5655 351.435 3 331 3Z" fill="#EFEFEF" stroke="black" stroke-width="6"/>
<path d="M11.2831 13.5879L356.283 250.588" stroke="black"/>
<path d="M10.7177 250.587L355.718 14.5873" stroke="black"/>
<path d="M46.8828 113.609C46.8828 111.719 46.2188 110.227 44.8906 109.133C43.5625 108.023 41.1328 106.977 37.6016 105.992C34.0703 104.992 31.4922 103.906 29.8672 102.734C27.5547 101.078 26.3984 98.9062 26.3984 96.2188C26.3984 93.6094 27.4688 91.4922 29.6094 89.8672C31.7656 88.2266 34.5156 87.4062 37.8594 87.4062C40.125 87.4062 42.1484 87.8438 43.9297 88.7188C45.7266 89.5938 47.1172 90.8125 48.1016 92.375C49.0859 93.9375 49.5781 95.6797 49.5781 97.6016H46.6719C46.6719 95.2734 45.875 93.4062 44.2812 92C42.6875 90.5781 40.5469 89.8672 37.8594 89.8672C35.25 89.8672 33.1719 90.4531 31.625 91.625C30.0781 92.7812 29.3047 94.2969 29.3047 96.1719C29.3047 97.9062 30 99.3203 31.3906 100.414C32.7812 101.508 35.0078 102.477 38.0703 103.32C41.1328 104.148 43.4531 105.016 45.0312 105.922C46.6094 106.812 47.7969 107.883 48.5938 109.133C49.3906 110.383 49.7891 111.859 49.7891 113.562C49.7891 116.25 48.7109 118.406 46.5547 120.031C44.4141 121.656 41.5859 122.469 38.0703 122.469C35.6641 122.469 33.4531 122.039 31.4375 121.18C29.4375 120.32 27.9141 119.117 26.8672 117.57C25.8359 116.023 25.3203 114.25 25.3203 112.25H28.2031C28.2031 114.656 29.1016 116.555 30.8984 117.945C32.6953 119.336 35.0859 120.031 38.0703 120.031C40.7266 120.031 42.8594 119.445 44.4688 118.273C46.0781 117.102 46.8828 115.547 46.8828 113.609ZM53.8203 108.945C53.8203 106.508 54.2891 104.312 55.2266 102.359C56.1797 100.406 57.5156 98.8906 59.2344 97.8125C60.9688 96.7188 62.9297 96.1719 65.1172 96.1719C68.4922 96.1719 71.2266 97.3594 73.3203 99.7344C75.4141 102.094 76.4609 105.227 76.4609 109.133V109.719C76.4609 112.172 75.9844 114.383 75.0312 116.352C74.0938 118.305 72.7656 119.812 71.0469 120.875C69.3281 121.938 67.3672 122.469 65.1641 122.469C61.8047 122.469 59.0703 121.289 56.9609 118.93C54.8672 116.555 53.8203 113.414 53.8203 109.508V108.945ZM56.6328 109.719C56.6328 112.75 57.4141 115.242 58.9766 117.195C60.5547 119.133 62.6172 120.102 65.1641 120.102C67.6953 120.102 69.7422 119.133 71.3047 117.195C72.8828 115.242 73.6719 112.672 73.6719 109.484V108.945C73.6719 107.008 73.3125 105.234 72.5938 103.625C71.875 102.016 70.8672 100.773 69.5703 99.8984C68.2734 99.0078 66.7891 98.5625 65.1172 98.5625C62.6172 98.5625 60.5781 99.5469 59 101.516C57.4219 103.469 56.6328 106.031 56.6328 109.203V109.719ZM84.8281 96.6406L84.9219 100.766C85.8594 99.2344 87.0312 98.0859 88.4375 97.3203C89.8438 96.5547 91.4062 96.1719 93.125 96.1719C97.125 96.1719 99.6641 97.8125 100.742 101.094C101.648 99.5156 102.859 98.3047 104.375 97.4609C105.891 96.6016 107.562 96.1719 109.391 96.1719C114.828 96.1719 117.602 99.1406 117.711 105.078V122H114.898V105.289C114.883 103.023 114.391 101.344 113.422 100.25C112.469 99.1562 110.906 98.6094 108.734 98.6094C106.719 98.6406 105.016 99.2969 103.625 100.578C102.234 101.844 101.461 103.391 101.305 105.219V122H98.4922V105.078C98.4766 102.906 97.9609 101.289 96.9453 100.227C95.9453 99.1484 94.3984 98.6094 92.3047 98.6094C90.5391 98.6094 89.0234 99.1172 87.7578 100.133C86.4922 101.133 85.5547 102.625 84.9453 104.609V122H82.1328V96.6406H84.8281ZM134.656 122.469C132.5 122.469 130.547 121.938 128.797 120.875C127.062 119.812 125.711 118.336 124.742 116.445C123.773 114.539 123.289 112.406 123.289 110.047V109.039C123.289 106.602 123.758 104.406 124.695 102.453C125.648 100.5 126.969 98.9688 128.656 97.8594C130.344 96.7344 132.172 96.1719 134.141 96.1719C137.219 96.1719 139.656 97.2266 141.453 99.3359C143.266 101.43 144.172 104.297 144.172 107.938V109.508H126.078V110.047C126.078 112.922 126.898 115.32 128.539 117.242C130.195 119.148 132.273 120.102 134.773 120.102C136.273 120.102 137.594 119.828 138.734 119.281C139.891 118.734 140.938 117.859 141.875 116.656L143.633 117.992C141.57 120.977 138.578 122.469 134.656 122.469ZM134.141 98.5625C132.031 98.5625 130.25 99.3359 128.797 100.883C127.359 102.43 126.484 104.508 126.172 107.117H141.383V106.812C141.305 104.375 140.609 102.391 139.297 100.859C137.984 99.3281 136.266 98.5625 134.141 98.5625ZM181.273 113.609C181.273 111.719 180.609 110.227 179.281 109.133C177.953 108.023 175.523 106.977 171.992 105.992C168.461 104.992 165.883 103.906 164.258 102.734C161.945 101.078 160.789 98.9062 160.789 96.2188C160.789 93.6094 161.859 91.4922 164 89.8672C166.156 88.2266 168.906 87.4062 172.25 87.4062C174.516 87.4062 176.539 87.8438 178.32 88.7188C180.117 89.5938 181.508 90.8125 182.492 92.375C183.477 93.9375 183.969 95.6797 183.969 97.6016H181.062C181.062 95.2734 180.266 93.4062 178.672 92C177.078 90.5781 174.938 89.8672 172.25 89.8672C169.641 89.8672 167.562 90.4531 166.016 91.625C164.469 92.7812 163.695 94.2969 163.695 96.1719C163.695 97.9062 164.391 99.3203 165.781 100.414C167.172 101.508 169.398 102.477 172.461 103.32C175.523 104.148 177.844 105.016 179.422 105.922C181 106.812 182.188 107.883 182.984 109.133C183.781 110.383 184.18 111.859 184.18 113.562C184.18 116.25 183.102 118.406 180.945 120.031C178.805 121.656 175.977 122.469 172.461 122.469C170.055 122.469 167.844 122.039 165.828 121.18C163.828 120.32 162.305 119.117 161.258 117.57C160.227 116.023 159.711 114.25 159.711 112.25H162.594C162.594 114.656 163.492 116.555 165.289 117.945C167.086 119.336 169.477 120.031 172.461 120.031C175.117 120.031 177.25 119.445 178.859 118.273C180.469 117.102 181.273 115.547 181.273 113.609ZM188.211 108.945C188.211 106.508 188.68 104.312 189.617 102.359C190.57 100.406 191.906 98.8906 193.625 97.8125C195.359 96.7188 197.32 96.1719 199.508 96.1719C202.883 96.1719 205.617 97.3594 207.711 99.7344C209.805 102.094 210.852 105.227 210.852 109.133V109.719C210.852 112.172 210.375 114.383 209.422 116.352C208.484 118.305 207.156 119.812 205.438 120.875C203.719 121.938 201.758 122.469 199.555 122.469C196.195 122.469 193.461 121.289 191.352 118.93C189.258 116.555 188.211 113.414 188.211 109.508V108.945ZM191.023 109.719C191.023 112.75 191.805 115.242 193.367 117.195C194.945 119.133 197.008 120.102 199.555 120.102C202.086 120.102 204.133 119.133 205.695 117.195C207.273 115.242 208.062 112.672 208.062 109.484V108.945C208.062 107.008 207.703 105.234 206.984 103.625C206.266 102.016 205.258 100.773 203.961 99.8984C202.664 99.0078 201.18 98.5625 199.508 98.5625C197.008 98.5625 194.969 99.5469 193.391 101.516C191.812 103.469 191.023 106.031 191.023 109.203V109.719ZM218.68 122V98.9375H214.484V96.6406H218.68V93.5703C218.68 90.9766 219.336 88.9844 220.648 87.5938C221.977 86.2031 223.82 85.5078 226.18 85.5078C227.242 85.5078 228.234 85.6406 229.156 85.9062L228.945 88.25C228.164 88.0625 227.312 87.9688 226.391 87.9688C224.844 87.9688 223.641 88.4531 222.781 89.4219C221.922 90.375 221.492 91.7344 221.492 93.5V96.6406H227.539V98.9375H221.492V122H218.68ZM236.914 90.1484V96.6406H242.164V98.9375H236.914V115.836C236.914 117.242 237.164 118.289 237.664 118.977C238.18 119.664 239.031 120.008 240.219 120.008C240.688 120.008 241.445 119.93 242.492 119.773L242.609 122.07C241.875 122.336 240.875 122.469 239.609 122.469C237.688 122.469 236.289 121.914 235.414 120.805C234.539 119.68 234.102 118.031 234.102 115.859V98.9375H229.438V96.6406H234.102V90.1484H236.914ZM254.047 116.164L254.469 118.344L255.031 116.047L261.125 96.6406H263.516L269.539 115.883L270.195 118.555L270.734 116.094L275.938 96.6406H278.844L271.461 122H269.07L262.555 101.891L262.25 100.508L261.945 101.914L255.547 122H253.156L245.797 96.6406H248.68L254.047 116.164ZM300.172 122C299.891 121.203 299.711 120.023 299.633 118.461C298.648 119.742 297.391 120.734 295.859 121.438C294.344 122.125 292.734 122.469 291.031 122.469C288.594 122.469 286.617 121.789 285.102 120.43C283.602 119.07 282.852 117.352 282.852 115.273C282.852 112.805 283.875 110.852 285.922 109.414C287.984 107.977 290.852 107.258 294.523 107.258H299.609V104.375C299.609 102.562 299.047 101.141 297.922 100.109C296.812 99.0625 295.188 98.5391 293.047 98.5391C291.094 98.5391 289.477 99.0391 288.195 100.039C286.914 101.039 286.273 102.242 286.273 103.648L283.461 103.625C283.461 101.609 284.398 99.8672 286.273 98.3984C288.148 96.9141 290.453 96.1719 293.188 96.1719C296.016 96.1719 298.242 96.8828 299.867 98.3047C301.508 99.7109 302.352 101.68 302.398 104.211V116.211C302.398 118.664 302.656 120.5 303.172 121.719V122H300.172ZM291.359 119.984C293.234 119.984 294.906 119.531 296.375 118.625C297.859 117.719 298.938 116.508 299.609 114.992V109.414H294.594C291.797 109.445 289.609 109.961 288.031 110.961C286.453 111.945 285.664 113.305 285.664 115.039C285.664 116.461 286.188 117.641 287.234 118.578C288.297 119.516 289.672 119.984 291.359 119.984ZM321.617 99.0312C321.023 98.9219 320.391 98.8672 319.719 98.8672C317.969 98.8672 316.484 99.3594 315.266 100.344C314.062 101.312 313.203 102.727 312.688 104.586V122H309.898V96.6406H312.641L312.688 100.672C314.172 97.6719 316.555 96.1719 319.836 96.1719C320.617 96.1719 321.234 96.2734 321.688 96.4766L321.617 99.0312ZM335.422 122.469C333.266 122.469 331.312 121.938 329.562 120.875C327.828 119.812 326.477 118.336 325.508 116.445C324.539 114.539 324.055 112.406 324.055 110.047V109.039C324.055 106.602 324.523 104.406 325.461 102.453C326.414 100.5 327.734 98.9688 329.422 97.8594C331.109 96.7344 332.938 96.1719 334.906 96.1719C337.984 96.1719 340.422 97.2266 342.219 99.3359C344.031 101.43 344.938 104.297 344.938 107.938V109.508H326.844V110.047C326.844 112.922 327.664 115.32 329.305 117.242C330.961 119.148 333.039 120.102 335.539 120.102C337.039 120.102 338.359 119.828 339.5 119.281C340.656 118.734 341.703 117.859 342.641 116.656L344.398 117.992C342.336 120.977 339.344 122.469 335.422 122.469ZM334.906 98.5625C332.797 98.5625 331.016 99.3359 329.562 100.883C328.125 102.43 327.25 104.508 326.938 107.117H342.148V106.812C342.07 104.375 341.375 102.391 340.062 100.859C338.75 99.3281 337.031 98.5625 334.906 98.5625ZM131.445 175.562H148.297V178H128.539V143.875H131.445V175.562ZM177.523 162.789C177.523 165.93 176.977 168.688 175.883 171.062C174.805 173.438 173.258 175.266 171.242 176.547C169.227 177.828 166.898 178.469 164.258 178.469C160.273 178.469 157.055 177.047 154.602 174.203C152.148 171.344 150.922 167.492 150.922 162.648V159.133C150.922 156.023 151.469 153.273 152.562 150.883C153.672 148.477 155.234 146.633 157.25 145.352C159.266 144.055 161.586 143.406 164.211 143.406C166.836 143.406 169.148 144.039 171.148 145.305C173.164 146.57 174.719 148.359 175.812 150.672C176.906 152.984 177.477 155.664 177.523 158.711V162.789ZM174.641 159.086C174.641 154.977 173.711 151.758 171.852 149.43C169.992 147.102 167.445 145.938 164.211 145.938C161.039 145.938 158.508 147.109 156.617 149.453C154.742 151.781 153.805 155.039 153.805 159.227V162.789C153.805 166.836 154.742 170.047 156.617 172.422C158.492 174.781 161.039 175.961 164.258 175.961C167.523 175.961 170.07 174.797 171.898 172.469C173.727 170.125 174.641 166.867 174.641 162.695V159.086ZM209.422 173.945C208.422 175.367 206.852 176.477 204.711 177.273C202.586 178.07 200.203 178.469 197.562 178.469C194.891 178.469 192.516 177.828 190.438 176.547C188.359 175.266 186.75 173.453 185.609 171.109C184.469 168.766 183.891 166.078 183.875 163.047V158.734C183.875 154 185.07 150.266 187.461 147.531C189.852 144.781 193.062 143.406 197.094 143.406C200.609 143.406 203.438 144.305 205.578 146.102C207.719 147.883 208.992 150.344 209.398 153.484H206.516C206.094 150.984 205.07 149.094 203.445 147.812C201.836 146.516 199.727 145.867 197.117 145.867C193.93 145.867 191.406 147 189.547 149.266C187.688 151.531 186.758 154.727 186.758 158.852V162.883C186.758 165.477 187.195 167.773 188.07 169.773C188.961 171.758 190.227 173.297 191.867 174.391C193.523 175.484 195.422 176.031 197.562 176.031C200.047 176.031 202.18 175.641 203.961 174.859C205.117 174.344 205.977 173.742 206.539 173.055V164.242H197.375V161.805H209.422V173.945ZM242.82 162.789C242.82 165.93 242.273 168.688 241.18 171.062C240.102 173.438 238.555 175.266 236.539 176.547C234.523 177.828 232.195 178.469 229.555 178.469C225.57 178.469 222.352 177.047 219.898 174.203C217.445 171.344 216.219 167.492 216.219 162.648V159.133C216.219 156.023 216.766 153.273 217.859 150.883C218.969 148.477 220.531 146.633 222.547 145.352C224.562 144.055 226.883 143.406 229.508 143.406C232.133 143.406 234.445 144.039 236.445 145.305C238.461 146.57 240.016 148.359 241.109 150.672C242.203 152.984 242.773 155.664 242.82 158.711V162.789ZM239.938 159.086C239.938 154.977 239.008 151.758 237.148 149.43C235.289 147.102 232.742 145.938 229.508 145.938C226.336 145.938 223.805 147.109 221.914 149.453C220.039 151.781 219.102 155.039 219.102 159.227V162.789C219.102 166.836 220.039 170.047 221.914 172.422C223.789 174.781 226.336 175.961 229.555 175.961C232.82 175.961 235.367 174.797 237.195 172.469C239.023 170.125 239.938 166.867 239.938 162.695V159.086Z" fill="black"/>
</svg>
